<?xml version="1.0" encoding="utf-8"?>
<svg version="1.0" xmlns="http://www.w3.org/2000/svg" width="1024.000000pt" height="324.000000pt" viewBox="0 0 1024.000000 324.000000" preserveAspectRatio="xMidYMid meet" style="filter: url(&quot;#invert-filter-0&quot;); opacity: 0.5;" xmlns:bx="https://boxy-svg.com">
  <defs>
    <filter id="invert-filter-0" bx:preset="invert 1 0.75" color-interpolation-filters="sRGB" x="-50%" y="-50%" width="200%" height="200%">
      <feComponentTransfer>
        <feFuncR type="table" tableValues="0.75 0.25"/>
        <feFuncG type="table" tableValues="0.75 0.25"/>
        <feFuncB type="table" tableValues="0.75 0.25"/>
      </feComponentTransfer>
    </filter>
  </defs>
  <g transform="matrix(0.1, 0, 0, -0.1, 1.165296, 321.669438)" fill="#000000" stroke="none" style="opacity: 0.03; filter: none;">
    <path d="M1791 3135 c-101 -85 -32 -264 93 -241 35 7 64 31 52 43 -4 4 -16 2 -26 -5 -49 -30 -111 -5 -130 54 -31 94 41 180 119 141 36 -18 56 -2 26 20 -32 22 -99 16 -134 -12z" style=""/>
    <path d="M2012 3140 c-27 -25 -29 -71 -4 -92 9 -8 38 -23 64 -33 54 -20 69 -46 42 -76 -19 -21 -58 -25 -98 -9 -29 11 -43 -2 -21 -20 22 -18 87 -22 115 -8 13 7 31 25 39 39 22 40 -1 76 -69 102 -46 19 -56 27 -58 50 -4 37 37 55 86 37 38 -13 51 -8 32 15 -19 23 -101 20 -128 -5z" style=""/>
    <path d="M2229 3139 c-14 -14 -19 -30 -17 -52 3 -32 22 -46 109 -82 30 -13 36 -41 13 -66 -19 -21 -58 -25 -98 -9 -21 8 -26 6 -26 -5 0 -21 48 -38 89 -31 68 11 105 81 64 119 -10 8 -40 24 -68 34 -40 15 -51 23 -53 44 -4 35 45 58 84 40 33 -15 44 -14 44 3 0 33 -109 37 -141 5z" style=""/>
    <path d="M2445 3147 c-26 -20 -4 -29 34 -14 40 15 66 0 66 -38 0 -29 -12 -40 -58 -50 -34 -7 -26 -25 12 -25 37 0 65 -32 57 -64 -7 -30 -40 -41 -91 -32 -42 8 -48 -10 -8 -25 88 -33 171 55 111 118 -20 21 -20 24 -5 41 22 24 22 65 -1 85 -22 21 -91 22 -117 4z" style=""/>
    <path d="M9822 3124 c-26 -18 -52 -65 -52 -94 0 -57 57 -110 119 -110 39 0 96 50 105 91 7 38 -14 91 -45 113 -30 20 -98 21 -127 0z m119 -33 c37 -38 39 -82 4 -116 -52 -53 -145 -16 -145 57 1 80 85 115 141 59z" style=""/>
    <path d="M8360 3101 c0 -10 -7 -21 -15 -25 -19 -7 -20 -26 -1 -26 8 0 16 -7 20 -15 7 -19 26 -20 26 -1 0 8 8 17 18 21 15 6 15 8 1 18 -8 7 -18 20 -22 30 -9 23 -27 22 -27 -2z" style=""/>
    <path d="M6216 3049 l-26 -31 0 -288 0 -288 26 -31 26 -31 143 0 143 0 41 -55 c23 -30 46 -55 51 -55 5 0 28 25 51 55 l41 55 139 0 c131 0 139 1 166 24 l28 24 3 283 c2 201 -1 291 -9 311 -24 59 -20 58 -425 58 l-372 0 -26 -31z m772 -5 c12 -8 22 -22 22 -30 0 -12 -58 -14 -396 -14 -369 0 -395 1 -392 17 7 39 39 43 398 43 297 0 349 -2 368 -16z m32 -84 c0 -20 -7 -20 -405 -20 -331 0 -405 2 -405 13 0 8 3 17 7 20 3 4 186 7 405 7 391 0 398 0 398 -20z m0 -284 l0 -235 -26 -20 c-24 -19 -40 -21 -164 -21 l-137 0 -32 -45 c-18 -25 -36 -45 -41 -45 -5 0 -23 20 -41 44 l-31 45 -149 3 c-126 3 -151 6 -166 21 -16 16 -18 42 -21 239 -2 121 -1 227 2 234 4 12 77 14 406 14 l400 0 0 -234z" style=""/>
    <path d="M6472 2793 c-80 -39 -87 -179 -11 -218 34 -18 110 -20 127 -3 7 7 12 36 12 65 l0 53 -40 0 c-29 0 -40 -4 -40 -15 0 -9 9 -15 25 -15 22 0 25 -4 25 -35 0 -28 -4 -36 -24 -41 -13 -3 -39 1 -58 9 -46 19 -65 69 -48 122 17 51 49 69 110 61 41 -5 49 -4 44 8 -11 29 -73 33 -122 9z" style=""/>
    <path d="M6652 2788 c5 -15 28 -18 29 -3 0 6 -7 12 -17 13 -10 3 -15 -1 -12 -10z" style=""/>
    <path d="M6756 2783 c-3 -3 -6 -15 -6 -25 0 -10 -7 -18 -15 -18 -8 0 -15 -5 -15 -10 0 -6 7 -13 15 -16 11 -5 15 -22 15 -68 0 -35 5 -67 12 -74 17 -17 58 -15 58 3 0 8 -9 15 -20 15 -18 0 -20 7 -20 60 0 53 2 60 20 60 11 0 20 7 20 15 0 8 -9 15 -20 15 -13 0 -20 7 -20 19 0 21 -13 34 -24 24z" style=""/>
    <path d="M6654 2727 c-10 -27 1 -160 14 -165 9 -3 12 19 12 87 0 56 -4 91 -10 91 -6 0 -13 -6 -16 -13z" style=""/>
    <path d="M4585 3058 c-3 -7 -4 -222 -3 -478 l3 -465 675 0 675 0 3 478 2 477 -675 0 c-531 0 -677 -3 -680 -12z m295 -63 l0 -45 -92 0 c-72 0 -89 3 -80 12 17 17 15 58 -4 65 -11 4 -22 -1 -30 -12 -12 -16 -12 -22 1 -42 15 -23 15 -23 -24 -23 -26 0 -41 5 -45 16 -8 21 -8 59 1 67 3 4 66 7 140 7 l133 0 0 -45z m1038 3 l-3 -43 -501 -3 -502 -2 -5 26 c-2 14 -2 35 0 45 5 18 23 19 510 19 l504 0 -3 -42z m2 -468 l0 -390 -657 2 -658 3 -3 365 c-1 201 0 375 3 388 l5 22 655 0 655 0 0 -390z" style=""/>
    <path d="M4774 3016 c-10 -26 0 -51 21 -51 16 0 20 7 20 30 0 33 -30 49 -41 21z" style=""/>
    <path d="M5355 2730 c-11 -18 -155 -422 -155 -436 0 -45 26 11 99 210 44 124 81 227 81 230 0 10 -18 7 -25 -4z" style=""/>
    <path d="M4990 2591 c-58 -37 -105 -74 -105 -81 0 -14 200 -148 223 -149 30 -2 5 21 -88 80 -55 35 -100 66 -100 69 0 3 44 32 97 66 91 57 122 85 91 83 -7 0 -60 -31 -118 -68z" style=""/>
    <path d="M5460 2652 c0 -6 45 -39 100 -74 55 -35 100 -66 100 -69 0 -3 -45 -34 -100 -69 -92 -57 -126 -89 -82 -78 27 8 222 137 222 148 0 11 -195 140 -222 148 -10 2 -18 0 -18 -6z" style=""/>
    <path d="M3342 2803 l3 -248 525 0 525 0 3 248 2 247 -530 0 -530 0 2 -247z m213 210 c3 -8 2 -25 -1 -39 -6 -23 -9 -24 -95 -24 l-89 0 0 38 0 37 90 1 c68 1 90 -3 95 -13z m813 -25 l3 -38 -395 0 -396 0 0 33 c0 19 3 37 7 40 4 4 180 6 392 5 l386 -3 3 -37z m-818 -238 l0 -170 -90 0 -90 0 0 170 0 170 90 0 90 0 0 -170z m820 0 l0 -170 -395 0 -395 0 0 170 0 170 395 0 395 0 0 -170z" style=""/>
    <path d="M3404 2995 c-4 -9 -2 -21 4 -27 15 -15 44 -1 40 19 -4 23 -36 29 -44 8z" style=""/>
    <path d="M3474 2995 c-4 -9 -2 -21 4 -27 15 -15 44 -1 40 19 -4 23 -36 29 -44 8z" style=""/>
    <path d="M3720 2799 c0 -11 5 -17 10 -14 6 3 10 13 10 21 0 8 -4 14 -10 14 -5 0 -10 -9 -10 -21z" style=""/>
    <path d="M3770 2805 c0 -8 5 -15 10 -15 6 0 10 7 10 15 0 8 -4 15 -10 15 -5 0 -10 -7 -10 -15z" style=""/>
    <path d="M3830 2810 c0 -5 5 -10 10 -10 6 0 10 5 10 10 0 6 -4 10 -10 10 -5 0 -10 -4 -10 -10z" style=""/>
    <path d="M3890 2810 c0 -5 9 -10 20 -10 11 0 20 5 20 10 0 6 -9 10 -20 10 -11 0 -20 -4 -20 -10z" style=""/>
    <path d="M3970 2810 c0 -5 11 -10 25 -10 14 0 25 5 25 10 0 6 -11 10 -25 10 -14 0 -25 -4 -25 -10z" style=""/>
    <path d="M4040 2810 c0 -5 7 -10 15 -10 8 0 15 5 15 10 0 6 -7 10 -15 10 -8 0 -15 -4 -15 -10z" style=""/>
    <path d="M4100 2811 c0 -6 5 -13 10 -16 6 -3 10 1 10 9 0 9 -4 16 -10 16 -5 0 -10 -4 -10 -9z" style=""/>
    <path d="M4150 2804 c0 -8 5 -12 10 -9 6 3 10 10 10 16 0 5 -4 9 -10 9 -5 0 -10 -7 -10 -16z" style=""/>
    <path d="M4210 2806 c0 -9 5 -16 10 -16 6 0 10 4 10 9 0 6 -4 13 -10 16 -5 3 -10 -1 -10 -9z" style=""/>
    <path d="M4260 2775 c0 -25 5 -45 10 -45 6 0 10 20 10 45 0 25 -4 45 -10 45 -5 0 -10 -20 -10 -45z" style=""/>
    <path d="M3667 2790 c-3 -13 -3 -28 2 -33 13 -13 19 5 11 33 l-6 25 -7 -25z" style=""/>
    <path d="M3830 2764 c0 -8 5 -12 10 -9 6 3 10 10 10 16 0 5 -4 9 -10 9 -5 0 -10 -7 -10 -16z" style=""/>
    <path d="M3890 2767 c0 -7 9 -13 20 -14 11 -1 20 4 20 13 0 8 -9 14 -20 14 -11 0 -20 -6 -20 -13z" style=""/>
    <path d="M3966 2771 c-4 -5 -2 -12 3 -15 5 -4 12 -2 15 3 4 5 2 12 -3 15 -5 4 -12 2 -15 -3z" style=""/>
    <path d="M4000 2766 c0 -9 5 -16 10 -16 6 0 10 4 10 9 0 6 -4 13 -10 16 -5 3 -10 -1 -10 -9z" style=""/>
    <path d="M4047 2774 c-8 -8 1 -24 14 -24 5 0 9 7 9 15 0 15 -12 20 -23 9z" style=""/>
    <path d="M4106 2771 c-4 -7 -5 -15 -2 -18 9 -9 19 4 14 18 -4 11 -6 11 -12 0z" style=""/>
    <path d="M3773 2745 c0 -14 3 -28 8 -31 5 -3 9 9 9 25 0 17 -4 31 -9 31 -5 0 -8 -11 -8 -25z" style=""/>
    <path d="M4150 2754 c0 -8 5 -12 10 -9 6 3 10 10 10 16 0 5 -4 9 -10 9 -5 0 -10 -7 -10 -16z" style=""/>
    <path d="M4210 2745 c0 -14 4 -25 9 -25 5 0 9 11 9 25 0 14 -4 25 -9 25 -5 0 -9 -11 -9 -25z" style=""/>
    <path d="M3720 2715 c0 -19 4 -35 8 -35 4 0 8 16 9 35 1 19 -3 35 -8 35 -5 0 -9 -16 -9 -35z" style=""/>
    <path d="M3830 2726 c0 -9 5 -16 10 -16 6 0 10 4 10 9 0 6 -4 13 -10 16 -5 3 -10 -1 -10 -9z" style=""/>
    <path d="M3964 2729 c-3 -5 1 -9 10 -9 8 0 21 -3 30 -6 9 -3 16 -2 16 4 0 13 -49 22 -56 11z" style=""/>
    <path d="M3666 2703 c10 -40 14 -41 14 -5 0 18 -5 32 -10 32 -6 0 -8 -11 -4 -27z" style=""/>
    <path d="M3890 2720 c0 -5 9 -10 20 -10 11 0 20 5 20 10 0 6 -9 10 -20 10 -11 0 -20 -4 -20 -10z" style=""/>
    <path d="M4050 2720 c0 -5 5 -10 10 -10 6 0 10 5 10 10 0 6 -4 10 -10 10 -5 0 -10 -4 -10 -10z" style=""/>
    <path d="M4100 2705 c0 -14 5 -25 10 -25 6 0 10 11 10 25 0 14 -4 25 -10 25 -5 0 -10 -11 -10 -25z" style=""/>
    <path d="M4150 2700 c0 -11 5 -20 10 -20 6 0 10 9 10 20 0 11 -4 20 -10 20 -5 0 -10 -9 -10 -20z" style=""/>
    <path d="M4266 2711 c-4 -7 -5 -15 -2 -18 9 -9 19 4 14 18 -4 11 -6 11 -12 0z" style=""/>
    <path d="M3775 2688 c-4 -10 -4 -26 0 -35 8 -17 8 -17 12 0 3 9 3 25 0 35 -4 16 -4 16 -12 0z" style=""/>
    <path d="M3830 2671 c0 -17 5 -31 10 -31 6 0 10 11 10 24 0 14 -4 28 -10 31 -6 4 -10 -7 -10 -24z" style=""/>
    <path d="M3895 2689 c-3 -3 4 -9 15 -12 12 -3 20 0 20 7 0 13 -28 18 -35 5z" style=""/>
    <path d="M3964 2688 c-10 -15 0 -18 32 -9 31 10 31 11 -4 15 -13 2 -25 -1 -28 -6z" style=""/>
    <path d="M4055 2687 c-4 -10 -5 -21 -1 -24 10 -10 18 4 13 24 -4 17 -4 17 -12 0z" style=""/>
    <path d="M4210 2669 c0 -16 4 -28 9 -25 5 3 9 17 9 31 0 14 -4 25 -9 25 -5 0 -9 -14 -9 -31z" style=""/>
    <path d="M3720 2656 c0 -9 5 -16 10 -16 6 0 10 4 10 9 0 6 -4 13 -10 16 -5 3 -10 -1 -10 -9z" style=""/>
    <path d="M3890 2650 c0 -5 9 -10 20 -10 11 0 20 5 20 10 0 6 -9 10 -20 10 -11 0 -20 -4 -20 -10z" style=""/>
    <path d="M3980 2650 c0 -5 9 -10 20 -10 11 0 20 5 20 10 0 6 -9 10 -20 10 -11 0 -20 -4 -20 -10z" style=""/>
    <path d="M4100 2650 c0 -5 5 -10 10 -10 6 0 10 5 10 10 0 6 -4 10 -10 10 -5 0 -10 -4 -10 -10z" style=""/>
    <path d="M4150 2650 c0 -5 5 -10 10 -10 6 0 10 5 10 10 0 6 -4 10 -10 10 -5 0 -10 -4 -10 -10z" style=""/>
    <path d="M4260 2650 c0 -5 5 -10 10 -10 6 0 10 5 10 10 0 6 -4 10 -10 10 -5 0 -10 -4 -10 -10z" style=""/>
    <path d="M8187 3043 c-4 -3 -7 -87 -7 -185 l0 -178 151 0 c108 0 150 3 147 11 -3 8 -48 12 -138 13 l-135 1 0 155 0 155 48 3 c33 2 47 7 47 18 0 10 -13 14 -53 14 -30 0 -57 -3 -60 -7z" style=""/>
    <path d="M8281 2944 c-104 -87 18 -246 135 -175 95 58 52 201 -61 201 -32 0 -51 -7 -74 -26z m130 -23 c47 -47 36 -111 -24 -136 -89 -37 -160 77 -86 139 40 34 74 33 110 -3z" style=""/>
    <path d="M7418 2903 c-25 -29 -29 -53 -13 -82 24 -48 72 -55 110 -16 30 29 32 64 5 93 -26 27 -80 30 -102 5z m73 -13 c26 -14 24 -55 -3 -74 -19 -13 -25 -14 -43 -2 -26 17 -31 49 -10 70 19 19 29 20 56 6z" style=""/>
    <path d="M311 2881 c-17 -16 -31 -36 -31 -44 0 -21 -29 -29 -103 -27 -34 1 -68 1 -74 1 -10 -1 -13 -30 -13 -110 l0 -109 -29 -12 c-53 -21 -62 -41 -59 -115 3 -61 6 -70 31 -89 44 -32 108 -29 146 8 17 16 33 38 37 48 5 17 15 18 82 16 l77 -3 3 -187 c1 -114 6 -188 12 -188 6 0 10 73 10 190 l0 190 79 0 c68 0 80 -3 85 -18 4 -10 20 -32 37 -48 61 -59 159 -30 189 55 14 39 13 45 -5 79 -11 21 -36 46 -57 57 l-38 20 0 106 0 107 -87 4 c-66 2 -88 7 -91 18 -3 8 -20 30 -38 48 -28 28 -39 32 -82 32 -41 0 -55 -5 -81 -29z m122 -2 c13 -6 32 -24 41 -40 15 -25 16 -35 6 -64 -23 -70 -99 -88 -151 -36 -71 72 11 183 104 140z m-150 -121 c14 -34 34 -55 71 -73 19 -10 21 -18 21 -105 l0 -95 -71 -3 -72 -3 -19 38 c-11 22 -35 47 -56 58 l-37 20 0 98 0 97 75 0 75 0 13 -32z m377 -65 l0 -98 -39 -22 c-27 -15 -44 -35 -52 -58 l-13 -35 -78 0 -78 0 0 95 0 95 40 20 c26 13 47 34 60 60 l20 40 70 0 70 0 0 -97z m-504 -148 c12 -8 27 -28 34 -45 24 -57 -26 -120 -95 -120 -40 0 -85 50 -85 93 0 67 91 111 146 72z m585 -14 c39 -40 39 -82 0 -122 -68 -67 -180 -3 -151 87 23 69 99 87 151 35z" style=""/>
    <path d="M8530 2895 c0 -8 -9 -15 -19 -15 -29 0 -35 -17 -9 -26 13 -4 26 -12 30 -17 8 -13 58 10 58 27 0 6 -14 19 -30 28 -25 14 -30 15 -30 3z" style=""/>
    <path d="M7577 2864 c-18 -19 19 -24 164 -24 135 0 159 -2 159 -15 0 -8 5 -15 10 -15 6 0 10 14 10 30 l0 30 -168 0 c-93 0 -172 -3 -175 -6z" style=""/>
    <path d="M8645 2830 c-50 -20 -50 -20 -50 -386 l0 -343 23 -23 c22 -22 30 -23 241 -28 l219 -5 -24 -77 c-21 -65 -29 -79 -49 -84 -66 -16 -6 -24 190 -24 137 0 215 4 215 10 0 6 -8 10 -19 10 -10 0 -23 6 -29 13 -8 10 -52 139 -52 153 0 2 94 4 209 4 l209 0 31 26 31 26 0 340 0 340 -29 29 -29 29 -534 -1 c-293 0 -542 -4 -553 -9z m1097 -37 c17 -15 18 -39 18 -354 0 -324 -1 -339 -19 -349 -13 -6 -204 -10 -552 -10 -481 0 -534 2 -551 17 -17 15 -18 39 -18 346 0 293 2 332 17 349 15 17 46 18 551 18 484 0 537 -2 554 -17z m-436 -823 c13 -41 24 -78 24 -82 0 -5 -61 -8 -135 -8 -106 0 -135 3 -135 13 0 11 22 83 45 145 3 9 27 12 91 10 l86 -3 24 -75z" style=""/>
    <path d="M8660 2455 l0 -315 530 0 530 0 0 315 0 315 -530 0 -530 0 0 -315z m1035 0 l0 -290 -502 -3 -503 -2 0 289 0 290 23 4 c12 2 238 4 502 3 l480 -1 0 -290z" style=""/>
    <path d="M2627 2814 c-17 -17 12 -24 99 -24 72 0 95 3 92 13 -5 13 -178 23 -191 11z" style=""/>
    <path d="M7900 2740 c0 -22 5 -40 10 -40 6 0 10 18 10 40 0 22 -4 40 -10 40 -5 0 -10 -18 -10 -40z" style=""/>
    <path d="M2816 2747 c-22 -7 -41 -18 -44 -26 -4 -11 1 -12 19 -7 55 17 130 18 172 3 23 -9 51 -15 62 -14 15 1 19 -3 18 -18 -3 -34 49 -119 77 -125 21 -5 25 -11 25 -45 0 -36 -3 -40 -27 -43 -22 -3 -32 -13 -48 -50 -22 -49 -23 -83 -2 -90 7 -2 12 6 12 23 0 43 27 85 60 92 29 5 30 7 30 70 0 63 0 64 -30 70 -35 6 -73 66 -64 99 7 26 -29 58 -55 51 -11 -3 -37 1 -58 9 -46 16 -95 16 -147 1z" style=""/>
    <path d="M2462 2738 c5 -15 50 -22 84 -14 43 11 25 26 -32 26 -40 0 -55 -4 -52 -12z" style=""/>
    <path d="M970 2663 c-20 -26 -21 -33 -18 -439 3 -389 4 -413 22 -433 18 -20 28 -21 233 -21 185 0 213 -2 213 -15 0 -9 -9 -54 -21 -100 -19 -77 -23 -84 -48 -87 -14 -2 -25 -7 -23 -13 3 -16 454 -13 460 3 2 8 -7 12 -27 12 -27 0 -31 4 -41 43 -6 23 -15 58 -21 77 -5 19 -9 45 -9 58 l0 22 213 0 c195 0 215 2 230 18 15 17 17 62 17 440 0 409 -1 423 -20 442 -20 20 -33 20 -579 20 l-560 0 -21 -27z m1131 -3 c10 -6 19 -17 19 -25 0 -13 -76 -15 -570 -15 -491 0 -570 2 -570 15 0 7 8 19 18 24 24 14 1076 15 1103 1z m19 -345 l0 -275 -567 2 -568 3 -3 273 -2 272 570 0 570 0 0 -275z m0 -400 c0 -93 -2 -105 -19 -115 -13 -6 -205 -10 -555 -10 -473 0 -536 2 -550 16 -12 12 -16 37 -16 109 0 81 2 94 18 98 9 3 266 5 570 6 l552 1 0 -105z m-443 -230 c34 -126 45 -115 -122 -115 -97 0 -145 4 -145 11 0 14 40 171 47 182 2 4 48 6 101 5 l97 -3 22 -80z" style=""/>
    <path d="M1118 2340 c-1 -49 -2 -97 -2 -107 -1 -9 5 -18 12 -20 8 -3 12 10 12 46 l0 51 55 0 55 0 0 -50 c0 -38 4 -50 15 -50 13 0 15 16 13 108 -3 110 -19 145 -28 62 l-5 -45 -50 0 -50 0 -3 48 c-5 81 -22 51 -24 -43z" style=""/>
    <path d="M1310 2415 c0 -10 10 -15 30 -15 l29 0 3 -92 c2 -62 7 -93 16 -96 9 -3 12 20 12 92 l0 95 33 3 c61 6 32 23 -45 26 -65 2 -78 0 -78 -13z" style=""/>
    <path d="M1507 2424 c-4 -4 -7 -54 -7 -111 0 -85 3 -103 15 -103 12 0 15 17 15 88 l1 87 32 -82 c17 -46 37 -83 43 -83 7 0 25 33 40 73 15 39 31 76 36 82 4 5 8 -30 8 -78 0 -51 4 -87 10 -87 6 0 10 43 10 110 0 100 -2 110 -18 110 -14 0 -26 -19 -47 -72 -16 -40 -32 -77 -35 -81 -4 -4 -20 27 -37 70 -28 72 -48 95 -66 77z" style=""/>
    <path d="M1778 2424 c-5 -4 -8 -54 -8 -111 l0 -103 65 0 c78 0 88 18 13 22 l-53 3 -5 98 c-3 55 -8 95 -12 91z" style=""/>
    <path d="M1942 2224 c4 -21 22 -23 26 -1 2 10 -3 17 -13 17 -10 0 -15 -6 -13 -16z" style=""/>
    <path d="M1530 1921 c-7 -15 -6 -24 6 -36 9 -9 21 -14 27 -12 18 6 31 33 24 51 -9 22 -44 20 -57 -3z" style=""/>
    <path d="M2567 2684 c-4 -4 -7 -18 -7 -30 0 -29 -47 -57 -72 -43 -34 19 -101 -66 -68 -86 19 -12 10 -47 -20 -75 -25 -24 -28 -32 -23 -64 4 -26 13 -40 28 -46 31 -12 59 -58 45 -74 -14 -18 -4 -41 27 -61 21 -14 29 -15 49 -5 19 11 27 10 49 -4 14 -9 25 -23 25 -31 0 -11 12 -15 45 -15 39 0 47 3 55 24 11 31 41 48 61 35 25 -15 46 -10 64 17 21 33 5 57 -17 25 -12 -17 -21 -20 -46 -15 -36 7 -82 -16 -82 -41 0 -23 -57 -20 -64 3 -9 27 -69 46 -95 30 -28 -17 -58 10 -43 39 13 24 -20 80 -54 94 -29 11 -33 54 -6 61 26 7 47 81 30 107 -10 17 -9 23 6 40 14 16 22 18 36 9 14 -9 24 -6 51 12 41 29 49 39 42 57 -4 10 11 13 67 13 53 0 71 3 68 13 -5 13 -139 23 -151 11z" style=""/>
    <path d="M2237 2664 c-4 -4 -7 -76 -7 -161 l0 -153 45 0 c52 0 61 17 13 22 -30 3 -33 6 -32 36 0 17 1 77 2 132 l2 100 61 0 c44 0 60 3 57 13 -5 13 -129 23 -141 11z" style=""/>
    <path d="M7900 2630 c0 -40 15 -54 26 -25 8 20 -4 65 -16 65 -6 0 -10 -18 -10 -40z" style=""/>
    <path d="M2739 2623 c-22 -59 -21 -79 5 -118 23 -33 26 -45 20 -82 -6 -42 -4 -46 34 -82 37 -36 100 -61 149 -61 39 0 93 21 93 37 0 10 -5 13 -17 8 -64 -26 -162 -12 -207 30 -22 21 -26 32 -26 83 0 46 -4 63 -20 77 -24 21 -25 53 -6 100 13 31 13 35 0 35 -8 0 -19 -12 -25 -27z" style=""/>
    <path d="M8386 2643 c-3 -3 -6 -33 -6 -65 l0 -58 -40 0 c-22 0 -40 -4 -40 -10 0 -5 25 -10 55 -10 l55 0 0 69 c0 65 -8 90 -24 74z" style=""/>
    <path d="M2870 2631 c-20 -14 -6 -25 33 -25 27 -1 32 -5 35 -29 3 -22 -3 -31 -27 -45 -37 -21 -38 -28 -6 -54 38 -30 30 -59 -16 -62 -33 -2 -21 -21 13 -21 25 0 36 6 47 27 14 25 14 29 -5 54 l-20 27 23 23 c25 26 30 61 11 87 -16 20 -68 31 -88 18z" style=""/>
    <path d="M2601 2570 c-69 -16 -121 -81 -121 -150 0 -82 79 -169 153 -170 37 0 96 25 103 45 10 26 -2 27 -37 6 -58 -35 -123 -22 -168 35 -30 38 -29 121 1 159 24 30 74 55 113 55 28 0 34 15 9 24 -9 3 -16 6 -17 5 -1 -1 -17 -5 -36 -9z" style=""/>
    <path d="M7417 2552 c-26 -29 -22 -77 9 -101 35 -27 59 -26 89 4 30 29 32 68 5 95 -26 26 -81 26 -103 2z m81 -14 c7 -7 12 -21 12 -33 0 -44 -60 -63 -80 -26 -14 27 -13 37 6 55 18 19 45 21 62 4z" style=""/>
    <path d="M7901 2542 c-11 -21 -18 -22 -166 -22 -97 0 -155 -4 -155 -10 0 -6 63 -10 170 -10 180 0 195 4 172 46 -9 16 -11 15 -21 -4z" style=""/>
    <path d="M2590 2506 c0 -8 12 -28 26 -45 21 -26 24 -34 14 -46 -16 -19 -7 -40 25 -61 33 -21 47 -8 16 15 -20 16 -22 21 -11 40 10 19 9 26 -8 44 -11 12 -25 32 -31 45 -13 25 -31 30 -31 8z" style=""/>
    <path d="M4036 2513 c-3 -3 -6 -48 -6 -99 l0 -93 -62 -3 -63 -3 -3 -65 c-5 -116 -13 -110 148 -110 l140 0 0 -44 c0 -24 3 -51 6 -60 12 -30 24 -5 24 50 l0 54 60 0 60 0 0 90 0 90 -140 0 -140 0 0 94 c0 87 -7 116 -24 99z m282 -285 l-3 -63 -190 0 -190 0 -3 63 -3 62 196 0 196 0 -3 -62z" style=""/>
    <path d="M7980 2510 c0 -5 18 -10 40 -10 22 0 40 5 40 10 0 6 -18 10 -40 10 -22 0 -40 -4 -40 -10z" style=""/>
    <path d="M8100 2510 c0 -6 33 -10 80 -10 47 0 80 4 80 10 0 6 -33 10 -80 10 -47 0 -80 -4 -80 -10z" style=""/>
    <path d="M2700 2465 c0 -8 9 -15 20 -15 11 0 20 7 20 15 0 8 -9 15 -20 15 -11 0 -20 -7 -20 -15z" style=""/>
    <path d="M3353 2360 c-186 -39 -333 -220 -333 -410 0 -112 61 -244 147 -320 245 -215 630 -73 686 254 40 236 -142 464 -383 480 -41 3 -94 1 -117 -4z m77 -115 l0 -85 -44 0 c-23 0 -57 5 -74 11 l-31 11 19 37 c21 42 93 111 115 111 12 0 15 -16 15 -85z m96 43 c55 -58 78 -98 66 -110 -6 -6 -40 -13 -76 -15 l-66 -6 0 87 c0 76 2 86 18 86 10 0 36 -19 58 -42z m89 11 c57 -27 89 -54 81 -68 -4 -6 -20 -18 -36 -26 -29 -15 -30 -15 -56 27 -15 24 -38 56 -53 72 l-26 28 25 -7 c14 -4 43 -15 65 -26z m-292 -1 c-11 -13 -33 -42 -48 -65 l-27 -42 -34 17 c-20 9 -33 22 -32 31 4 17 115 81 142 81 19 0 19 -1 -1 -22z m-126 -110 c21 -12 39 -23 41 -24 2 -1 -2 -22 -9 -45 -6 -24 -14 -69 -18 -99 l-6 -55 -79 -3 -79 -3 7 50 c4 27 13 66 22 87 19 45 64 114 75 114 4 0 25 -10 46 -22z m573 -28 c35 -54 60 -127 60 -172 l0 -29 -77 3 -77 3 -12 80 c-7 44 -15 89 -19 100 -4 16 2 25 32 41 21 12 43 22 49 23 7 1 26 -21 44 -49z m-390 -28 l45 -8 0 -79 0 -80 -97 -3 c-54 -1 -98 1 -98 5 0 23 22 136 30 158 9 23 14 25 42 20 18 -3 53 -9 78 -13z m249 -39 c6 -32 12 -74 14 -93 l2 -35 -95 0 -95 0 0 80 0 79 65 12 c103 18 96 20 109 -43z m-417 -221 c4 -35 12 -79 19 -99 12 -38 11 -39 -43 -72 l-36 -22 -25 33 c-35 47 -52 85 -67 146 -18 78 -13 83 72 80 l73 -3 7 -63z m172 62 l46 -7 0 -78 c0 -87 5 -82 -85 -92 -22 -3 -48 -8 -57 -12 -14 -5 -20 3 -32 47 -8 29 -18 72 -21 95 -5 35 -4 42 12 46 28 7 86 8 137 1z m416 0 c32 -7 32 -8 26 -51 -7 -54 -37 -125 -72 -170 l-26 -34 -36 22 c-55 33 -54 32 -38 97 9 33 16 76 16 95 0 29 4 36 23 40 37 7 73 7 107 1z m-156 -55 c-9 -68 -29 -134 -40 -134 -14 1 -106 15 -131 21 -22 4 -23 9 -23 84 l0 80 100 0 101 0 -7 -51z m-216 -231 c2 -74 0 -88 -13 -88 -22 0 -86 62 -112 109 -26 45 -22 51 42 62 80 14 80 14 83 -83z m114 81 c29 -6 55 -13 57 -15 8 -7 -51 -93 -84 -123 -58 -51 -65 -45 -65 59 0 102 -4 99 92 79z m-246 -94 c23 -36 38 -65 33 -65 -32 0 -149 70 -149 88 0 9 51 41 65 41 6 0 29 -29 51 -64z m375 48 c16 -10 29 -21 29 -25 0 -17 -119 -88 -149 -88 -12 0 70 129 82 130 5 0 22 -8 38 -17z" style=""/>
    <path d="M6240 2174 c-81 -35 -150 -138 -150 -224 0 -66 16 -114 57 -167 20 -26 64 -115 98 -198 81 -195 87 -206 99 -202 5 2 44 85 85 185 42 99 86 191 98 204 58 61 81 187 48 266 -20 46 -78 108 -127 133 -46 24 -157 25 -208 3z m217 -40 c70 -43 108 -110 108 -188 -1 -64 -16 -102 -65 -166 -15 -19 -56 -106 -91 -192 -35 -87 -66 -154 -70 -150 -4 4 -37 79 -74 167 -36 88 -77 171 -90 185 -57 60 -73 177 -34 257 55 114 205 155 316 87z" style=""/>
    <path d="M6290 2089 c-58 -24 -100 -85 -100 -144 0 -134 162 -198 258 -102 64 64 52 180 -22 226 -40 25 -103 34 -136 20z m118 -39 c41 -25 66 -81 57 -126 -12 -65 -95 -118 -154 -99 -12 3 -34 17 -50 31 -117 98 16 274 147 194z" style=""/>
    <path d="M6970 2029 c0 -124 3 -160 13 -157 9 4 13 45 15 151 l3 147 54 0 c30 0 55 5 55 10 0 6 -30 10 -70 10 l-70 0 0 -161z" style=""/>
    <path d="M8020 2180 c0 -5 26 -10 58 -12 l57 -3 3 -147 c4 -205 22 -194 22 12 l0 160 -70 0 c-38 0 -70 -4 -70 -10z" style=""/>
    <path d="M2770 2035 l0 -75 -211 0 c-164 0 -210 -3 -207 -12 7 -19 428 -24 440 -6 4 7 8 48 8 91 0 62 -3 77 -15 77 -12 0 -15 -15 -15 -75z" style=""/>
    <path d="M7635 2051 c-3 -6 -37 -92 -75 -192 -69 -178 -86 -240 -57 -209 12 13 157 387 157 404 0 9 -18 7 -25 -3z" style=""/>
    <path d="M33 2030 c-28 -17 -33 -26 -33 -58 0 -92 122 -116 153 -29 4 9 16 17 27 17 11 0 20 5 20 10 0 6 -8 10 -18 10 -11 0 -24 11 -30 25 -11 23 -47 45 -75 45 -7 0 -27 -9 -44 -20z m87 -25 c24 -22 14 -74 -16 -85 -40 -16 -84 11 -84 51 0 17 40 49 62 49 12 0 29 -7 38 -15z" style=""/>
    <path d="M9802 2005 c-62 -19 -106 -57 -136 -117 -44 -87 -34 -182 27 -254 16 -19 27 -44 27 -62 0 -35 22 -62 51 -62 12 0 19 -7 19 -18 0 -29 21 -42 71 -42 61 0 79 7 79 32 0 12 12 24 35 34 29 12 35 19 35 45 0 19 10 43 27 63 67 80 81 176 38 263 -31 62 -81 102 -149 120 -60 16 -69 15 -124 -2z m181 -51 c106 -75 121 -218 32 -314 -13 -14 -25 -41 -27 -60 l-3 -35 -117 -3 -118 -3 0 39 c0 29 -7 45 -26 63 -99 93 -67 271 60 331 61 28 143 21 199 -18z m-65 -456 c-3 -7 -25 -14 -51 -16 -37 -2 -47 0 -47 12 0 12 12 16 51 16 36 0 49 -4 47 -12z" style=""/>
    <path d="M9803 1930 c-24 -10 -43 -26 -43 -35 0 -20 9 -19 33 3 14 12 36 17 77 17 51 0 63 -4 90 -30 17 -16 34 -43 38 -59 12 -44 37 -48 28 -5 -9 48 -35 81 -86 107 -54 27 -82 27 -137 2z" style=""/>
    <path d="M333 1983 c-24 -9 -13 -23 17 -23 32 0 40 14 14 24 -9 3 -16 6 -17 5 -1 0 -8 -3 -14 -6z" style=""/>
    <path d="M417 1983 c-14 -13 -6 -23 18 -23 28 0 34 15 9 24 -19 7 -19 7 -27 -1z" style=""/>
    <path d="M4424 1980 c-54 -17 -126 -73 -162 -125 -32 -47 -38 -51 -95 -63 -188 -38 -242 -260 -89 -367 42 -29 48 -30 148 -30 136 0 138 18 2 25 -111 5 -132 13 -172 60 -96 114 -20 279 132 286 56 2 57 3 80 46 32 61 69 97 127 124 135 64 289 -3 350 -152 l24 -58 53 -1 c101 -2 158 -57 158 -151 0 -36 -6 -61 -23 -85 -36 -55 -77 -69 -194 -69 -102 0 -133 -5 -133 -21 0 -5 53 -9 117 -9 139 0 188 17 231 83 37 56 38 147 2 200 -33 48 -87 77 -143 77 l-46 0 -26 58 c-32 70 -75 116 -140 149 -55 28 -149 39 -201 23z" style=""/>
    <path d="M230 1970 c0 -5 14 -10 30 -10 17 0 30 5 30 10 0 6 -13 10 -30 10 -16 0 -30 -4 -30 -10z" style=""/>
    <path d="M490 1970 c0 -5 14 -10 30 -10 17 0 30 5 30 10 0 6 -13 10 -30 10 -16 0 -30 -4 -30 -10z" style=""/>
    <path d="M580 1970 c0 -5 14 -10 30 -10 17 0 30 5 30 10 0 6 -13 10 -30 10 -16 0 -30 -4 -30 -10z" style=""/>
    <path d="M670 1970 c0 -5 14 -10 30 -10 17 0 30 5 30 10 0 6 -13 10 -30 10 -16 0 -30 -4 -30 -10z" style=""/>
    <path d="M760 1970 c0 -5 11 -10 24 -10 14 0 28 5 31 10 4 6 -7 10 -24 10 -17 0 -31 -4 -31 -10z" style=""/>
    <path d="M7308 1922 c-53 -31 -97 -62 -98 -68 0 -11 181 -124 200 -124 27 0 3 23 -70 67 -44 26 -80 51 -80 55 0 4 36 28 80 55 44 26 80 53 80 60 0 19 -7 17 -112 -45z" style=""/>
    <path d="M7730 1968 c0 -7 36 -35 80 -61 44 -27 80 -52 80 -55 0 -4 -36 -29 -80 -55 -71 -43 -97 -67 -71 -67 19 0 202 113 198 124 -3 10 -185 125 -199 126 -5 0 -8 -6 -8 -12z" style=""/>
    <path d="M8635 1847 c-9 -46 -52 -63 -96 -39 l-30 17 -35 -38 -35 -38 19 -26 c17 -23 17 -28 4 -57 -10 -22 -25 -36 -46 -42 -29 -9 -31 -12 -31 -59 0 -48 1 -50 30 -55 40 -7 70 -64 49 -95 -21 -30 -17 -51 17 -79 30 -25 32 -26 58 -10 40 24 83 8 95 -34 6 -21 17 -34 31 -38 34 -8 67 -1 75 16 21 46 30 56 54 65 19 6 33 6 46 -3 30 -18 44 -15 75 18 28 30 29 31 12 58 -15 27 -15 31 1 63 12 24 25 35 44 37 22 3 29 10 34 38 8 43 -9 84 -35 84 -11 0 -28 14 -40 36 l-21 36 20 25 21 26 -33 34 c-35 36 -53 41 -78 18 -25 -23 -78 1 -88 40 -8 28 -12 30 -60 33 -51 3 -51 3 -57 -31z m81 5 c6 -4 14 -19 17 -33 5 -19 18 -30 49 -42 38 -15 44 -15 65 -2 18 12 28 13 43 5 23 -12 24 -20 9 -54 -18 -39 15 -115 53 -123 26 -5 29 -10 26 -37 -2 -25 -8 -32 -29 -34 -20 -2 -30 -13 -46 -51 -19 -45 -19 -51 -5 -74 13 -21 13 -28 3 -41 -17 -20 -45 -21 -60 -2 -10 12 -19 11 -62 -6 -43 -18 -49 -24 -49 -49 0 -26 -3 -29 -34 -29 -30 0 -35 3 -38 27 -2 22 -13 33 -48 49 -44 21 -46 21 -71 3 -26 -18 -27 -18 -45 2 -16 18 -17 22 -2 47 15 25 14 30 -6 72 -16 35 -27 46 -49 48 -23 3 -27 8 -27 37 0 29 4 34 26 37 20 2 30 14 46 51 18 42 19 51 8 73 -12 22 -11 27 8 46 21 21 22 21 41 4 19 -18 22 -18 66 0 35 15 48 25 52 46 4 23 14 31 43 37 3 0 10 -3 16 -7z" style=""/>
    <path d="M8646 1720 c-67 -21 -110 -88 -104 -165 5 -63 29 -98 86 -126 75 -37 148 -14 200 62 20 28 23 44 20 92 -4 49 -9 62 -38 92 -47 48 -102 63 -164 45z m117 -39 c84 -55 85 -170 2 -221 -86 -53 -205 11 -205 112 0 93 126 160 203 109z" style=""/>
    <path d="M6976 1833 c-3 -3 -6 -78 -6 -165 l0 -158 70 0 c39 0 70 4 70 9 0 12 -29 23 -41 15 -5 -3 -23 -3 -39 1 l-30 7 0 143 c0 131 -6 166 -24 148z" style=""/>
    <path d="M8147 1833 c-4 -3 -7 -71 -7 -149 l0 -143 -57 -3 c-34 -2 -58 -8 -61 -15 -3 -10 15 -13 67 -13 l71 0 0 165 c0 91 -1 165 -3 165 -2 0 -7 -3 -10 -7z" style=""/>
    <path d="M493 1743 c-3 -10 -35 -91 -70 -181 -63 -163 -72 -197 -52 -190 10 3 148 351 149 376 0 18 -20 15 -27 -5z" style=""/>
    <path d="M9032 1748 c4 -10 35 -13 121 -13 159 0 155 19 -4 23 -95 2 -120 0 -117 -10z" style=""/>
    <path d="M9310 1745 c0 -13 15 -15 92 -13 62 2 93 7 96 16 3 9 -20 12 -92 12 -80 0 -96 -3 -96 -15z" style=""/>
    <path d="M9532 1748 c7 -20 68 -23 68 -4 0 12 -10 16 -36 16 -24 0 -34 -4 -32 -12z" style=""/>
    <path d="M5522 1708 c-10 -40 -15 -44 -62 -61 -50 -18 -51 -18 -79 2 -16 12 -33 21 -38 21 -5 0 -28 -20 -52 -44 l-43 -44 23 -39 22 -39 -19 -48 c-14 -34 -26 -48 -44 -52 -50 -11 -55 -18 -55 -85 l0 -63 35 -7 c39 -8 51 -22 69 -77 12 -36 12 -42 -9 -69 -25 -35 -20 -48 38 -98 l34 -29 39 22 38 22 48 -22 c39 -19 48 -29 54 -57 9 -42 22 -51 81 -51 50 0 57 6 73 59 8 27 19 36 59 52 48 18 49 18 74 -1 36 -29 55 -25 96 20 42 46 43 52 16 90 -19 27 -19 27 2 79 16 38 27 51 43 51 42 0 65 27 65 78 0 59 -9 72 -50 81 -34 7 -38 11 -65 73 -16 36 -16 38 4 67 27 37 26 43 -5 80 -42 50 -59 55 -100 30 l-35 -21 -47 20 c-40 17 -49 27 -58 59 l-11 38 -65 3 -65 3 -11 -43z m122 10 c3 -7 7 -25 10 -41 5 -22 19 -33 64 -53 l57 -26 39 22 38 22 29 -28 c34 -33 35 -38 9 -73 -19 -28 -19 -28 5 -87 25 -62 32 -69 78 -79 25 -5 27 -9 27 -54 0 -48 0 -48 -38 -54 -34 -6 -39 -11 -65 -69 l-27 -63 20 -27 c25 -35 25 -36 -7 -70 -32 -33 -37 -34 -74 -8 l-28 21 -40 -21 c-22 -11 -47 -20 -55 -20 -19 0 -36 -31 -36 -64 0 -24 -3 -26 -50 -26 -46 0 -50 2 -55 28 -10 46 -19 54 -78 75 -55 20 -57 20 -92 2 l-35 -20 -32 32 -32 33 23 31 c22 29 23 36 12 63 -7 17 -18 46 -24 63 -8 27 -17 34 -51 40 -38 8 -41 11 -44 45 -4 41 17 68 53 68 27 0 33 10 60 86 18 51 18 52 -3 79 -25 31 -21 44 19 74 l30 22 29 -21 30 -21 63 25 c40 16 63 31 65 43 10 63 10 63 58 63 27 0 46 -5 48 -12z" style=""/>
    <path d="M5515 1567 c-78 -30 -137 -88 -164 -160 -6 -16 -11 -57 -11 -92 0 -239 298 -346 455 -162 35 41 65 117 65 167 0 169 -192 306 -345 247z m184 -36 c205 -105 157 -405 -72 -445 -85 -15 -196 43 -238 126 -57 111 -23 233 85 306 43 28 56 32 118 32 48 0 80 -6 107 -19z" style=""/>
    <path d="M5515 1471 c-89 -55 -116 -140 -74 -228 51 -106 205 -128 286 -41 72 77 52 209 -40 263 -54 31 -128 34 -172 6z m171 -36 c90 -69 73 -200 -33 -254 -87 -44 -203 35 -203 138 0 123 138 191 236 116z" style=""/>
    <path d="M5540 1380 c-44 -44 -29 -118 30 -139 80 -27 142 65 89 133 -26 33 -88 37 -119 6z m96 -25 c15 -15 23 -32 20 -41 -3 -9 -6 -19 -6 -24 0 -4 -13 -13 -30 -20 -25 -10 -34 -10 -55 4 -33 21 -34 68 -3 90 31 22 45 20 74 -9z" style=""/>
    <path d="M2512 1724 c-59 -22 -146 -104 -178 -170 l-26 -54 -49 0 c-129 0 -239 -119 -226 -246 9 -87 55 -156 132 -197 34 -18 61 -22 173 -25 116 -4 132 -2 132 12 0 14 -17 16 -122 16 -139 0 -180 13 -235 71 -40 42 -53 77 -53 139 0 61 10 88 51 134 46 52 84 69 155 70 l62 0 21 52 c30 72 82 128 149 161 80 39 183 39 259 0 93 -48 159 -132 186 -237 l14 -55 56 -6 c69 -8 113 -38 139 -97 34 -76 5 -165 -67 -209 -25 -15 -58 -19 -204 -23 -127 -4 -176 -8 -179 -17 -6 -21 317 -18 366 2 107 45 152 167 101 272 -26 54 -62 80 -135 96 -54 12 -59 16 -65 45 -19 95 -106 204 -200 253 -57 29 -193 36 -257 13z" style=""/>
    <path d="M188 1628 c-49 -27 -88 -53 -88 -58 0 -12 169 -104 177 -96 10 10 -13 30 -71 61 -31 17 -56 33 -56 36 0 4 32 23 70 43 66 35 80 49 63 59 -5 3 -47 -18 -95 -45z" style=""/>
    <path d="M610 1666 c0 -8 29 -31 65 -52 36 -21 65 -41 65 -44 0 -3 -29 -21 -65 -40 -36 -19 -65 -41 -65 -47 0 -7 2 -13 5 -13 13 0 175 93 175 100 0 7 -93 66 -157 99 -19 10 -23 9 -23 -3z" style=""/>
    <path d="M4412 1577 c-34 -34 -62 -66 -62 -70 0 -19 29 -3 72 40 l48 47 0 -167 c0 -92 -2 -167 -5 -167 -2 0 -26 20 -52 45 -49 45 -63 53 -63 34 0 -9 113 -120 130 -127 12 -5 130 108 130 124 0 23 -12 17 -62 -33 l-48 -47 0 131 c0 72 -3 145 -6 162 -9 42 5 39 54 -9 37 -37 62 -50 62 -32 0 8 -122 132 -131 132 -2 0 -33 -28 -67 -63z" style=""/>
    <path d="M3755 1461 c-57 -15 -106 -44 -141 -84 -34 -41 -64 -117 -64 -167 0 -49 29 -126 64 -167 76 -88 221 -110 322 -47 58 35 108 112 119 179 8 58 -14 137 -54 192 -49 68 -169 114 -246 94z m141 -45 c104 -48 158 -171 123 -277 -31 -92 -116 -153 -213 -153 -245 1 -314 327 -92 430 65 30 117 30 182 0z" style=""/>
    <path d="M3763 1375 c-56 -24 -73 -93 -35 -145 18 -23 19 -29 7 -34 -25 -9 -55 -69 -55 -108 0 -21 5 -38 10 -38 6 0 10 11 10 25 0 72 66 123 134 104 43 -12 66 -43 73 -98 7 -48 23 -44 23 5 0 42 -23 89 -50 104 l-21 11 21 26 c22 28 26 82 9 115 -9 17 -65 49 -86 48 -4 -1 -22 -7 -40 -15z m85 -32 c32 -27 37 -64 12 -96 -29 -37 -80 -37 -109 -1 -27 35 -26 59 4 89 28 29 65 32 93 8z" style=""/>
    <path d="M9940 1385 c0 -30 5 -55 10 -55 6 0 10 25 10 55 0 30 -4 55 -10 55 -5 0 -10 -25 -10 -55z" style=""/>
    <path d="M9854 1416 c-8 -21 3 -49 16 -41 5 3 10 15 10 25 0 25 -18 36 -26 16z" style=""/>
    <path d="M2502 1346 c-40 -41 -72 -79 -72 -85 0 -6 19 -11 45 -11 l45 0 0 -141 c0 -108 3 -140 13 -137 9 4 13 45 15 151 l3 146 -25 7 c-14 3 -30 3 -35 -1 -6 -3 -11 -2 -11 2 0 10 93 103 103 103 7 0 90 -87 95 -101 2 -5 -10 -9 -27 -9 l-31 0 0 -151 c0 -116 3 -150 13 -147 9 3 13 43 15 141 l3 137 38 0 c21 0 41 3 45 7 6 7 -142 163 -155 163 -3 0 -38 -33 -77 -74z" style=""/>
    <path d="M808 1350 c-84 -14 -156 -40 -187 -66 l-31 -26 2 -286 3 -286 45 -28 c66 -41 172 -61 325 -61 180 0 305 29 364 84 20 19 21 27 21 294 0 312 4 297 -87 337 -94 41 -321 60 -455 38z m353 -35 c90 -19 153 -52 157 -83 7 -48 -175 -101 -348 -102 -192 0 -376 58 -355 112 9 23 80 56 157 73 87 19 299 19 389 0z m-503 -155 c77 -37 168 -52 317 -52 146 0 268 22 322 58 l24 15 -3 -53 c-3 -47 -7 -55 -36 -75 -116 -77 -486 -78 -624 0 -38 20 -46 39 -47 105 0 27 -4 26 47 2z m120 -175 c79 -17 270 -19 362 -4 36 5 91 21 123 33 l57 24 0 -38 c0 -49 -28 -73 -124 -103 -60 -18 -94 -22 -221 -22 -160 0 -227 11 -306 51 -48 24 -59 39 -59 78 0 34 7 36 56 15 24 -11 75 -27 112 -34z m-118 -85 c144 -73 477 -73 620 0 l40 20 0 -34 c0 -46 -34 -70 -137 -97 -102 -27 -315 -30 -416 -6 -71 18 -147 51 -147 66 0 5 -3 23 -6 40 -8 37 -5 37 46 11z m11 -114 c141 -64 475 -59 610 8 18 9 34 16 36 16 1 0 3 -22 3 -49 0 -56 -12 -73 -68 -97 -51 -22 -192 -44 -279 -44 -144 0 -311 37 -344 76 -10 12 -23 114 -14 114 1 0 27 -11 56 -24z" style=""/>
    <path d="M694 726 c-10 -26 4 -48 28 -44 17 2 23 10 23 28 0 18 -6 26 -23 28 -13 2 -25 -3 -28 -12z" style=""/>
    <path d="M817 714 c-4 -4 -7 -18 -7 -31 0 -21 4 -24 28 -21 21 2 27 8 27 28 0 18 -6 26 -20 28 -12 2 -24 0 -28 -4z" style=""/>
    <path d="M934 695 c-10 -25 4 -47 28 -43 17 2 24 11 26 31 3 23 0 27 -23 27 -14 0 -28 -7 -31 -15z" style=""/>
    <path d="M9857 1343 c-4 -3 -7 -17 -7 -30 0 -33 24 -24 28 10 3 26 -7 35 -21 20z" style=""/>
    <path d="M360 1270 c0 -16 4 -30 9 -30 13 0 21 27 15 45 -10 25 -24 17 -24 -15z" style=""/>
    <path d="M6098 1254 c-15 -8 -30 -25 -33 -37 -3 -12 -6 -180 -7 -374 -2 -193 -7 -355 -11 -360 -5 -4 -23 -8 -40 -8 -27 0 -32 -4 -35 -27 -5 -40 14 -67 61 -89 40 -18 75 -19 627 -19 387 0 598 4 624 11 48 13 86 53 86 90 0 26 -3 28 -42 31 l-43 3 -5 373 -5 374 -28 24 -28 24 -547 0 c-464 -1 -551 -3 -574 -16z m1136 -30 c14 -13 16 -62 16 -380 l0 -364 -585 0 -586 0 3 366 c3 349 4 366 22 380 17 12 110 14 567 14 484 0 549 -2 563 -16z m-734 -799 c23 -24 27 -25 165 -25 138 0 142 1 165 25 l23 25 244 0 c141 0 243 -4 243 -9 0 -23 -15 -43 -41 -56 -43 -23 -1216 -22 -1259 0 -31 16 -54 48 -43 59 3 3 113 6 243 6 l237 0 23 -25z m310 15 c0 -6 -55 -10 -145 -10 -90 0 -145 4 -145 10 0 6 55 10 145 10 90 0 145 -4 145 -10z" style=""/>
    <path d="M6129 1188 c-2 -7 -3 -163 -1 -345 l3 -333 539 0 540 0 0 345 0 345 -539 0 c-423 0 -540 -3 -542 -12z m1051 -328 c0 -173 -4 -318 -8 -322 -5 -5 -235 -7 -513 -6 l-504 3 -3 310 c-1 170 0 316 3 322 3 11 110 13 516 11 l511 -3 -2 -315z" style=""/>
    <path d="M6656 868 c-38 -101 -71 -189 -74 -195 -2 -7 2 -13 10 -13 9 0 38 66 82 183 38 100 71 188 73 195 3 6 -1 12 -9 12 -9 0 -39 -66 -82 -182z" style=""/>
    <path d="M6405 924 c-49 -30 -90 -60 -90 -66 0 -13 162 -117 183 -118 28 0 9 21 -50 56 -112 67 -110 56 -19 109 45 26 81 53 81 61 0 20 -5 18 -105 -42z" style=""/>
    <path d="M6825 970 c-3 -6 26 -30 69 -58 42 -26 74 -51 72 -57 -1 -5 -33 -28 -71 -50 -62 -37 -98 -72 -64 -63 30 7 189 104 189 114 0 7 -33 31 -72 55 -40 23 -83 49 -95 56 -14 10 -23 11 -28 3z" style=""/>
    <path d="M9857 1264 c-4 -4 -7 -20 -7 -36 0 -35 23 -34 28 1 4 25 -10 46 -21 35z" style=""/>
    <path d="M1590 1233 c-72 -49 -76 -128 -12 -186 14 -13 36 -19 67 -19 38 0 53 6 76 28 57 55 45 144 -24 177 -45 22 -76 21 -107 0z m115 -38 c41 -40 33 -105 -16 -130 -40 -21 -63 -19 -98 11 -61 51 -26 144 54 144 25 0 44 -8 60 -25z" style=""/>
    <path d="M9328 1242 c-45 -3 -48 -5 -54 -36 -5 -27 -13 -37 -44 -49 -35 -13 -40 -13 -68 5 l-30 19 -36 -32 c-39 -34 -44 -53 -21 -86 13 -18 12 -25 -2 -62 -13 -33 -23 -43 -45 -48 -37 -7 -46 -26 -40 -85 4 -45 6 -48 37 -54 26 -4 36 -14 50 -44 16 -35 16 -40 1 -61 -24 -35 -20 -54 20 -88 35 -31 43 -32 76 -3 28 23 89 -5 103 -49 11 -33 13 -34 65 -34 52 0 54 1 62 33 7 25 18 37 45 48 34 15 38 14 66 -6 l29 -22 39 38 c44 43 46 50 22 76 -15 17 -16 23 -3 61 12 34 22 44 50 53 35 12 35 12 35 70 0 56 -1 58 -31 66 -23 6 -36 18 -49 47 -16 37 -16 41 0 69 22 36 17 52 -29 87 l-35 27 -30 -22 c-29 -20 -32 -20 -63 -4 -39 20 -48 31 -48 60 0 26 -11 30 -72 26z m52 -57 c4 -24 15 -34 54 -53 l49 -23 30 21 29 22 26 -25 c24 -25 24 -35 1 -68 -10 -13 -7 -28 11 -72 20 -49 27 -56 54 -59 29 -3 31 -6 31 -43 0 -37 -2 -40 -31 -43 -26 -3 -34 -10 -52 -51 -26 -56 -27 -74 -7 -91 19 -16 19 -29 -2 -52 -20 -22 -41 -23 -64 -2 -16 15 -22 15 -66 -2 -53 -20 -63 -29 -63 -60 0 -26 -22 -36 -56 -28 -16 4 -24 13 -24 28 0 31 -10 40 -63 60 -48 18 -49 18 -76 -2 l-28 -20 -26 25 -25 26 20 28 21 27 -24 49 c-26 54 -34 63 -67 63 -21 0 -23 4 -20 43 3 38 6 42 31 45 22 3 32 14 53 58 26 54 26 63 2 96 -11 15 -9 22 13 43 l25 26 26 -20 26 -21 51 21 c44 19 51 26 57 56 6 32 8 34 43 31 31 -3 37 -7 41 -33z" style=""/>
    <path d="M9298 1060 c-53 -16 -97 -51 -117 -94 -64 -131 42 -273 187 -251 59 9 124 70 141 132 24 90 -33 187 -126 212 -43 12 -48 12 -85 1z m112 -43 c56 -30 83 -77 77 -138 -9 -109 -119 -171 -217 -121 -107 53 -107 207 0 263 46 25 88 24 140 -4z" style=""/>
    <path d="M9927 1233 c-25 -6 -11 -23 19 -23 15 0 24 5 22 12 -5 14 -17 17 -41 11z" style=""/>
    <path d="M10007 1234 c-13 -13 -7 -24 13 -24 17 0 20 -7 20 -40 0 -22 5 -40 11 -40 6 0 9 21 7 53 -3 44 -6 52 -23 55 -12 2 -24 0 -28 -4z" style=""/>
    <path d="M360 1165 c0 -25 5 -45 10 -45 6 0 10 20 10 45 0 25 -4 45 -10 45 -5 0 -10 -20 -10 -45z" style=""/>
    <path d="M9852 1139 c2 -19 8 -33 13 -31 15 3 12 55 -3 60 -10 3 -13 -5 -10 -29z" style=""/>
    <path d="M7570 730 l0 -420 588 2 587 3 3 418 2 417 -590 0 -590 0 0 -420z m78 365 c0 -30 -3 -35 -24 -35 -21 0 -24 5 -24 35 0 30 3 35 24 35 21 0 24 -5 24 -35z m82 16 c0 -11 3 -26 6 -35 5 -12 0 -16 -19 -16 -22 0 -25 4 -25 35 0 28 4 35 19 35 12 0 19 -7 19 -19z m95 -16 c0 -25 -4 -31 -27 -33 -24 -3 -26 0 -25 33 1 32 3 36 26 33 22 -2 26 -8 26 -33z m895 5 c0 -17 -5 -30 -12 -31 -7 0 -202 0 -433 -1 -389 -1 -420 0 -423 16 -10 47 -20 46 438 46 l430 0 0 -30z m0 -415 l0 -355 -562 2 -563 3 2 245 c0 135 2 293 2 353 l1 107 560 0 560 0 0 -355z" style=""/>
    <path d="M8185 951 c-3 -5 22 -29 55 -52 64 -45 80 -81 40 -92 -26 -7 -26 -27 0 -27 17 0 20 -8 22 -92 3 -86 5 -93 27 -104 27 -14 51 -8 51 12 0 8 -10 14 -25 14 -25 0 -25 1 -25 85 0 84 0 85 25 85 16 0 25 6 25 15 0 9 -9 15 -25 15 -21 0 -25 5 -25 28 0 23 -12 37 -64 75 -68 50 -72 52 -81 38z" style=""/>
    <path d="M8002 864 c-90 -46 -110 -186 -37 -254 37 -34 125 -40 154 -11 18 18 21 31 19 79 l-3 57 -42 0 c-51 0 -63 -19 -15 -23 33 -3 33 -4 30 -50 l-3 -47 -46 -3 c-66 -4 -100 26 -106 94 -6 67 19 114 71 133 30 12 44 12 69 3 21 -8 35 -8 41 -2 30 30 -80 50 -132 24z" style=""/>
    <path d="M7797 767 c-37 -34 -67 -67 -67 -72 0 -12 122 -135 133 -135 20 0 1 31 -48 80 l-55 54 61 62 c34 34 57 64 52 67 -4 3 -39 -22 -76 -56z" style=""/>
    <path d="M8446 823 c-3 -4 21 -35 55 -69 l62 -63 -56 -51 c-51 -46 -71 -80 -49 -80 11 0 132 124 132 136 0 10 -121 134 -131 134 -3 0 -9 -3 -13 -7z" style=""/>
    <path d="M8195 809 c-10 -26 -1 -234 10 -232 13 4 19 223 6 236 -7 7 -12 5 -16 -4z" style=""/>
    <path d="M7960 537 c0 -13 113 -97 131 -97 23 0 4 22 -48 58 -81 54 -83 55 -83 39z" style=""/>
    <path d="M8244 489 c-64 -47 -80 -65 -62 -71 7 -3 134 88 143 102 3 5 2 11 -3 14 -5 3 -40 -18 -78 -45z" style=""/>
    <path d="M10040 1070 c0 -22 5 -40 10 -40 6 0 10 18 10 40 0 22 -4 40 -10 40 -5 0 -10 -18 -10 -40z" style=""/>
    <path d="M360 1060 c0 -22 5 -40 10 -40 6 0 10 18 10 40 0 22 -4 40 -10 40 -5 0 -10 -18 -10 -40z" style=""/>
    <path d="M9850 1036 c0 -19 4 -38 10 -41 12 -7 24 39 16 60 -10 27 -26 16 -26 -19z" style=""/>
    <path d="M4435 1024 c-92 -17 -169 -49 -207 -89 l-28 -28 0 -286 0 -287 33 -31 c72 -69 179 -96 382 -96 157 0 246 16 327 60 78 42 78 44 78 350 0 316 1 312 -102 362 -116 57 -315 75 -483 45z m353 -30 c187 -38 259 -134 149 -199 -150 -87 -484 -92 -640 -8 -28 15 -58 40 -67 56 -13 24 -13 30 0 54 20 35 106 79 190 97 90 20 273 20 368 0z m-494 -235 c142 -66 396 -78 561 -25 44 14 89 32 100 40 11 9 23 16 28 16 13 0 8 -165 -5 -181 -41 -49 -167 -88 -309 -96 -184 -10 -351 27 -416 93 -31 30 -33 36 -33 108 0 42 2 76 4 76 2 0 33 -14 70 -31z m-2 -212 c84 -41 185 -60 328 -60 143 0 235 18 317 62 l53 29 0 -24 c0 -153 -600 -185 -745 -40 -22 22 -36 73 -17 64 4 -2 33 -16 64 -31z m94 -128 c63 -17 109 -22 229 -22 164 -1 242 14 324 59 24 13 45 24 48 24 2 0 3 -35 1 -77 -3 -76 -4 -78 -37 -100 -131 -88 -484 -98 -648 -17 -65 31 -83 62 -83 144 l0 61 43 -26 c24 -14 79 -35 123 -46z" style=""/>
    <path d="M4297 674 c-13 -14 -7 -52 10 -58 25 -10 51 20 37 42 -12 19 -36 27 -47 16z" style=""/>
    <path d="M4433 643 c-15 -6 -17 -49 -3 -58 20 -12 50 6 50 30 0 18 -21 40 -33 34 -1 0 -8 -3 -14 -6z" style=""/>
    <path d="M4577 624 c-12 -12 -8 -41 8 -54 20 -17 47 5 43 34 -3 21 -37 34 -51 20z" style=""/>
    <path d="M4305 360 c-8 -27 1 -40 30 -40 27 0 41 26 24 46 -17 20 -47 17 -54 -6z" style=""/>
    <path d="M4446 344 c-10 -9 -15 -23 -12 -31 3 -8 6 -17 6 -19 0 -2 11 -4 25 -4 29 0 43 25 28 48 -14 23 -29 25 -47 6z m34 -18 c0 -3 -4 -8 -10 -11 -5 -3 -10 -1 -10 4 0 6 5 11 10 11 6 0 10 -2 10 -4z" style=""/>
    <path d="M4583 324 c-6 -17 6 -45 23 -51 21 -7 47 23 40 45 -9 27 -53 30 -63 6z" style=""/>
    <path d="M2867 1003 c-4 -3 -7 -57 -7 -120 l0 -113 -165 0 -165 0 0 -72 c0 -82 17 -84 22 -3 l3 50 45 0 c25 1 100 2 168 3 l122 2 0 130 c0 119 -4 142 -23 123z" style=""/>
    <path d="M3095 988 c-3 -7 -6 -112 -7 -233 l-3 -220 -77 -3 c-43 -2 -78 -7 -78 -11 0 -5 37 -36 82 -70 57 -43 87 -59 98 -54 8 5 138 9 288 11 167 2 272 6 272 12 0 6 -96 10 -252 10 l-253 1 25 22 c14 12 39 32 55 44 25 19 28 24 15 33 -8 6 -44 9 -80 8 l-65 -3 0 215 0 215 230 5 c312 7 307 24 -8 28 -185 2 -239 0 -242 -10z m105 -485 c0 -5 -23 -25 -51 -45 l-51 -38 -27 20 c-14 10 -39 30 -56 44 l-30 25 108 1 c59 0 107 -3 107 -7z" style=""/>
    <path d="M10040 975 c0 -23 3 -25 50 -25 28 0 50 5 50 10 0 6 -16 10 -35 10 -22 0 -38 6 -41 15 -9 24 -24 17 -24 -10z" style=""/>
    <path d="M360 955 c0 -19 5 -35 10 -35 6 0 10 16 10 35 0 19 -4 35 -10 35 -5 0 -10 -16 -10 -35z" style=""/>
    <path d="M9857 964 c-4 -4 -7 -25 -7 -46 l0 -38 -55 0 c-43 0 -55 -3 -55 -15 0 -13 12 -15 68 -13 l67 3 3 49 c3 47 -7 74 -21 60z" style=""/>
    <path d="M10170 960 c0 -5 16 -10 35 -10 19 0 35 5 35 10 0 6 -16 10 -35 10 -19 0 -35 -4 -35 -10z" style=""/>
    <path d="M1617 933 c-9 -8 -9 -806 -1 -827 5 -14 46 -16 355 -16 l349 0 0 425 0 425 -348 0 c-192 0 -352 -3 -355 -7z m672 -22 c8 -5 11 -16 8 -25 -6 -14 -35 -16 -237 -16 -147 0 -230 -4 -230 -10 0 -6 83 -10 229 -10 152 0 232 -4 236 -11 4 -6 5 -12 3 -14 -3 -3 -558 -8 -630 -6 -27 1 -28 3 -28 49 l0 49 318 2 c178 1 323 -3 331 -8z m6 -461 l0 -335 -325 0 -325 0 -3 338 -2 337 327 -2 328 -3 0 -335z" style=""/>
    <path d="M1691 880 c-17 -10 -7 -40 14 -40 8 0 15 9 15 19 0 24 -12 32 -29 21z" style=""/>
    <path d="M1754 876 c-7 -19 3 -36 22 -36 10 0 14 8 12 22 -4 26 -26 36 -34 14z" style=""/>
    <path d="M1830 680 c0 -6 70 -10 190 -10 120 0 190 4 190 10 0 6 -70 10 -190 10 -120 0 -190 -4 -190 -10z" style=""/>
    <path d="M1830 600 c0 -6 70 -10 190 -10 120 0 190 4 190 10 0 6 -70 10 -190 10 -120 0 -190 -4 -190 -10z" style=""/>
    <path d="M1830 520 c0 -6 36 -11 85 -12 47 -1 97 -2 112 -2 14 -1 28 5 31 12 3 9 -24 12 -112 12 -71 0 -116 -4 -116 -10z" style=""/>
    <path d="M1800 395 l0 -65 90 0 90 0 0 65 0 65 -90 0 -90 0 0 -65z m155 -5 c0 -31 -3 -35 -25 -35 -21 0 -25 5 -25 27 0 37 -19 39 -25 2 -4 -23 -11 -30 -33 -32 -26 -3 -27 -1 -27 38 l0 41 68 -3 67 -3 0 -35z" style=""/>
    <path d="M1837 274 c-18 -18 15 -24 134 -24 100 0 130 3 127 13 -5 13 -248 24 -261 11z" style=""/>
    <path d="M1935 190 c-3 -5 -5 -11 -3 -11 2 -1 65 -2 141 -3 105 -1 137 1 137 11 0 16 -265 19 -275 3z" style=""/>
    <path d="M3845 909 c-10 -26 -1 -334 10 -332 14 4 19 323 6 336 -7 7 -12 5 -16 -4z" style=""/>
    <path d="M3195 890 c-3 -6 0 -12 7 -15 7 -3 132 -4 277 -3 201 2 265 6 269 16 5 16 -543 18 -553 2z" style=""/>
    <path d="M362 848 l3 -43 94 0 c65 0 96 4 98 12 3 9 -20 13 -84 15 -88 3 -88 3 -91 31 -5 44 -23 31 -20 -15z" style=""/>
    <path d="M5614 806 c-4 -10 -2 -22 4 -28 8 -8 13 -7 18 6 4 10 2 22 -4 28 -8 8 -13 7 -18 -6z" style=""/>
    <path d="M3190 800 c0 -6 100 -10 280 -10 180 0 280 4 280 10 0 6 -100 10 -280 10 -180 0 -280 -4 -280 -10z" style=""/>
    <path d="M5796 759 c-14 -17 -26 -35 -26 -40 0 -5 -29 -9 -64 -9 -56 0 -64 2 -69 21 -7 27 -27 15 -27 -17 0 -23 2 -24 79 -24 71 0 80 -2 86 -20 9 -30 54 -60 89 -60 42 0 72 23 86 64 30 93 -91 160 -154 85z m108 -10 c29 -23 33 -54 10 -87 -18 -27 -69 -30 -96 -5 -26 23 -24 78 4 97 30 21 50 20 82 -5z" style=""/>
    <path d="M3190 720 c0 -6 100 -10 280 -10 180 0 280 4 280 10 0 6 -100 10 -280 10 -180 0 -280 -4 -280 -10z" style=""/>
    <path d="M9757 656 c-86 -23 -156 -114 -157 -202 0 -58 45 -142 96 -178 69 -47 169 -48 237 -2 l35 24 48 -49 c43 -44 74 -61 74 -42 0 4 -23 31 -51 59 l-51 51 17 32 c85 166 -68 355 -248 307z m159 -46 c95 -59 113 -202 36 -283 -40 -42 -75 -57 -134 -57 -105 0 -179 67 -186 170 -4 51 -1 66 22 104 53 91 173 121 262 66z" style=""/>
    <path d="M9763 541 c-64 -40 -72 -104 -19 -157 26 -26 42 -34 69 -34 70 0 123 77 98 142 -21 56 -97 81 -148 49z m102 -36 c49 -48 17 -125 -52 -125 -70 0 -101 86 -47 129 35 28 69 26 99 -4z" style=""/>
    <path d="M5610 650 c0 -5 -18 -10 -40 -10 -22 0 -40 -4 -40 -10 0 -5 18 -10 40 -10 22 0 43 0 48 0 4 -1 8 8 10 20 2 11 -1 20 -7 20 -6 0 -11 -4 -11 -10z" style=""/>
    <path d="M5090 630 c0 -5 18 -10 40 -10 22 0 40 5 40 10 0 6 -18 10 -40 10 -22 0 -40 -4 -40 -10z" style=""/>
    <path d="M5200 630 c0 -5 16 -10 35 -10 19 0 35 5 35 10 0 6 -16 10 -35 10 -19 0 -35 -4 -35 -10z" style=""/>
    <path d="M5300 630 c0 -5 16 -10 35 -10 19 0 35 5 35 10 0 6 -16 10 -35 10 -19 0 -35 -4 -35 -10z" style=""/>
    <path d="M5400 630 c0 -5 9 -10 20 -10 17 0 20 -7 20 -39 0 -22 5 -43 11 -46 15 -10 16 -7 21 53 l5 52 -38 0 c-22 0 -39 -4 -39 -10z" style=""/>
    <path d="M604 616 c-8 -21 -1 -61 11 -61 6 0 11 17 13 38 3 37 -13 52 -24 23z" style=""/>
    <path d="M1318 528 l-3 -93 -57 -3 c-43 -2 -58 -7 -58 -17 0 -12 19 -15 100 -15 82 0 100 3 100 15 0 10 -10 15 -30 15 l-30 0 0 89 c0 121 -18 129 -22 9z" style=""/>
    <path d="M2530 570 c0 -22 5 -40 10 -40 6 0 10 18 10 40 0 22 -4 40 -10 40 -5 0 -10 -18 -10 -40z" style=""/>
    <path d="M675 560 c-3 -5 0 -13 8 -16 23 -8 92 0 92 11 0 14 -92 19 -100 5z" style=""/>
    <path d="M950 446 c0 -57 -4 -96 -10 -96 -5 0 -10 -5 -10 -11 0 -6 10 -9 23 -7 21 3 22 7 22 102 0 71 -4 101 -12 104 -10 3 -13 -20 -13 -92z" style=""/>
    <path d="M3840 511 c0 -32 -26 -46 -56 -31 -23 13 -27 11 -52 -13 -24 -24 -25 -30 -15 -57 12 -31 6 -40 -29 -53 -13 -5 -18 -17 -18 -46 0 -35 4 -42 24 -47 31 -7 39 -27 24 -60 -11 -24 -9 -29 15 -50 23 -20 31 -22 52 -12 31 14 53 5 57 -24 2 -19 10 -24 40 -26 32 -3 39 1 53 27 16 32 34 38 64 21 14 -7 24 -3 45 19 24 25 26 32 16 51 -15 28 -7 48 25 60 20 8 25 16 25 45 0 29 -5 37 -25 45 -32 12 -40 32 -25 60 21 39 -46 90 -76 60 -16 -16 -43 -1 -50 26 -5 21 -12 24 -50 24 -36 0 -44 -3 -44 -19z m69 -24 c12 -32 65 -54 86 -37 23 19 48 -5 32 -30 -15 -25 16 -95 38 -86 11 4 15 -2 15 -19 0 -18 -5 -25 -19 -25 -27 0 -49 -55 -32 -82 18 -28 -1 -48 -29 -30 -26 16 -90 -13 -90 -40 0 -28 -39 -23 -50 6 -11 29 -39 40 -79 31 -32 -7 -49 8 -32 29 16 20 -6 75 -35 86 -31 12 -31 28 1 40 28 10 49 67 32 88 -6 8 -5 17 3 27 11 13 15 14 29 2 14 -12 21 -12 49 -1 17 8 32 20 32 27 0 15 20 37 32 37 5 0 13 -11 17 -23z" style=""/>
    <path d="M3820 358 c-11 -12 -20 -25 -20 -29 0 -4 -3 -14 -6 -22 -8 -22 51 -79 79 -75 31 4 28 32 -5 36 -38 4 -51 23 -38 56 9 26 13 27 72 24 l63 -3 3 -34 c3 -27 0 -33 -12 -28 -11 5 -16 0 -16 -13 0 -25 22 -26 43 -2 24 26 21 65 -6 90 -33 32 -127 31 -157 0z" style=""/>
    <path d="M217 513 c-4 -3 -7 -14 -7 -22 0 -9 -9 -22 -20 -29 -17 -10 -24 -10 -43 3 -22 14 -25 13 -55 -18 -30 -31 -31 -34 -16 -55 17 -24 5 -62 -21 -62 -47 0 -53 -99 -6 -110 30 -7 41 -36 27 -73 -10 -26 -8 -31 17 -53 22 -19 32 -22 47 -14 35 19 61 12 73 -20 11 -28 15 -31 52 -28 33 2 41 7 43 26 4 27 49 49 66 32 18 -18 42 -11 65 21 18 24 20 33 11 44 -20 24 -4 62 30 73 25 9 30 16 30 44 0 37 -15 58 -41 58 -24 0 -34 37 -18 67 12 22 10 27 -17 53 -27 28 -32 29 -61 18 -36 -14 -63 1 -63 33 0 16 -8 19 -43 19 -24 0 -47 -3 -50 -7z m68 -36 c7 -27 74 -62 89 -47 14 14 43 12 49 -4 3 -7 1 -18 -5 -24 -19 -19 8 -91 37 -98 32 -8 36 -54 5 -54 -28 0 -53 -54 -45 -96 5 -27 2 -36 -11 -41 -9 -3 -20 0 -24 7 -12 19 -78 -9 -93 -39 -17 -35 -35 -37 -47 -6 -13 35 -72 60 -100 43 -28 -18 -50 4 -32 32 17 28 -14 94 -46 98 -31 5 -29 40 3 52 33 13 59 74 42 100 -17 28 5 50 33 32 28 -17 94 14 98 46 5 30 40 30 47 -1z" style=""/>
    <path d="M230 399 c-72 -15 -116 -102 -86 -172 39 -94 173 -102 226 -14 60 98 -24 210 -140 186z m73 -30 c96 -49 64 -189 -43 -189 -101 0 -138 129 -52 183 32 19 65 21 95 6z" style=""/>
    <path d="M607 513 c-9 -8 -9 -76 -1 -97 8 -22 74 -22 74 -1 0 9 -9 15 -25 15 -23 0 -25 4 -25 45 0 42 -7 54 -23 38z" style=""/>
    <path d="M2530 465 c0 -19 5 -35 10 -35 6 0 10 16 10 35 0 19 -4 35 -10 35 -5 0 -10 -16 -10 -35z" style=""/>
    <path d="M5447 493 c-14 -13 -7 -63 8 -63 10 0 15 11 15 35 0 33 -8 43 -23 28z" style=""/>
    <path d="M725 420 c-10 -16 17 -21 85 -18 40 2 65 8 68 16 5 15 -143 17 -153 2z" style=""/>
    <path d="M1027 424 c-15 -16 9 -24 69 -24 50 0 64 3 64 15 0 12 -14 15 -63 15 -35 0 -67 -3 -70 -6z" style=""/>
    <path d="M1440 415 c0 -11 11 -15 40 -15 29 0 40 4 40 15 0 11 -11 15 -40 15 -29 0 -40 -4 -40 -15z" style=""/>
    <path d="M2530 365 c0 -19 5 -35 10 -35 6 0 10 16 10 35 0 19 -4 35 -10 35 -5 0 -10 -16 -10 -35z" style=""/>
    <path d="M5149 387 c-45 -34 -50 -92 -13 -136 64 -76 192 -2 154 89 -7 17 -22 37 -34 45 -25 18 -85 19 -107 2z m96 -32 c27 -26 31 -46 15 -75 -26 -48 -90 -48 -115 0 -18 35 -9 67 24 85 37 20 48 18 76 -10z" style=""/>
    <path d="M5440 370 c0 -28 -1 -29 -55 -32 -79 -4 -69 -23 13 -23 l67 0 3 43 c2 33 0 42 -12 42 -11 0 -16 -9 -16 -30z" style=""/>
    <path d="M2829 320 l-40 -42 -130 4 c-101 3 -129 1 -129 -9 0 -10 32 -13 135 -13 l134 0 16 -31 c50 -95 190 -49 171 56 -8 41 -34 64 -80 72 -33 5 -40 2 -77 -37z m113 -7 c26 -23 24 -78 -4 -97 -32 -22 -55 -20 -83 9 -30 29 -32 58 -5 85 24 24 67 26 92 3z" style=""/>
    <path d="M520 340 c0 -6 68 -10 185 -10 117 0 185 4 185 10 0 6 -68 10 -185 10 -117 0 -185 -4 -185 -10z" style=""/>
    <path d="M2350 270 c0 -5 16 -10 35 -10 19 0 35 5 35 10 0 6 -16 10 -35 10 -19 0 -35 -4 -35 -10z" style=""/>
    <path d="M2440 270 c0 -5 16 -10 36 -10 21 0 33 4 29 10 -3 6 -19 10 -36 10 -16 0 -29 -4 -29 -10z" style=""/>
  </g>
</svg>